<svg version="1.1" viewBox="0.0 0.0 200.0 200.0" fill="none" stroke="none" stroke-linecap="square" stroke-miterlimit="10" xmlns:xlink="http://www.w3.org/1999/xlink" xmlns="http://www.w3.org/2000/svg"><clipPath id="p.0"><path d="m0 0l200.0 0l0 200.0l-200.0 0l0 -200.0z" clip-rule="nonzero"/></clipPath><g clip-path="url(#p.0)"><path fill="#000000" fill-opacity="0.0" d="m0 0l200.0 0l0 200.0l-200.0 0z" fill-rule="evenodd"/><path fill="#ffc108" d="m0 0l200.0 0l0 200.0l-200.0 0z" fill-rule="evenodd"/><path fill="#000000" fill-opacity="0.0" d="m-32.902885 15.249344l178.61417 0l0 80.40945l-178.61417 0z" fill-rule="evenodd"/><path fill="#000000" d="m86.19529 76.89121q-2.109375 6.609375 -4.953125 13.015625q-2.84375 6.40625 -6.53125 12.21875q-3.6875 5.796875 -8.25 10.734375q-4.546875 4.9375 -10.0625 8.53125q-5.515625 3.578125 -12.0 5.625q-6.46875 2.0468674 -14.031252 2.0468674q-1.296875 0 -2.453125 -0.46875q-1.15625 -0.484375 -2.03125 -1.3281174q-0.859375 -0.84375 -1.34375 -1.96875q-0.484375 -1.140625 -0.484375 -2.453125l0 -45.953125l12.531252 0l0 39.171875q4.578125 0 8.78125 -1.96875q4.21875 -1.984375 7.96875 -5.234375q3.765625 -3.25 6.96875 -7.390625q3.203125 -4.15625 5.703125 -8.515625q2.515625 -4.359375 4.265625 -8.546875q1.765625 -4.1875 2.625 -7.515625l13.296875 0z" fill-rule="nonzero"/></g></svg>