<?xml version="1.0" encoding="UTF-8"?>
<svg xmlns="http://www.w3.org/2000/svg" xmlns:xlink="http://www.w3.org/1999/xlink" width="112.5pt" height="112.499997pt" viewBox="0 0 112.5 112.499997" version="1.2">
<defs>
<clipPath id="clip1">
  <path d="M 15 7.875 L 103.828125 7.875 L 103.828125 96 L 15 96 Z M 15 7.875 "/>
</clipPath>
<clipPath id="clip2">
  <path d="M 15 7.875 L 93 7.875 L 93 85 L 15 85 Z M 15 7.875 "/>
</clipPath>
<clipPath id="clip3">
  <path d="M 41 34 L 103.828125 34 L 103.828125 96 L 41 96 Z M 41 34 "/>
</clipPath>
<clipPath id="clip4">
  <path d="M 8.578125 27 L 86 27 L 86 104.554688 L 8.578125 104.554688 Z M 8.578125 27 "/>
</clipPath>
</defs>
<g id="surface1">
<g clip-path="url(#clip1)" clip-rule="nonzero">
<path style=" stroke:none;fill-rule:nonzero;fill:rgb(98.429871%,72.158813%,10.5896%);fill-opacity:1;" d="M 85.085938 68.011719 C 89.515625 61.785156 92.144531 54.167969 92.144531 45.933594 C 92.125 24.898438 75.0625 7.847656 54 7.847656 C 32.953125 7.847656 15.890625 24.898438 15.890625 45.953125 C 15.890625 67.003906 32.953125 84.054688 54.019531 84.054688 C 62.238281 84.054688 69.839844 81.445312 76.089844 77.019531 L 94.832031 95.753906 L 103.828125 86.761719 Z M 25.195312 45.953125 C 30.070312 41.078125 35.855469 37.714844 42.003906 35.839844 C 42.003906 35.839844 42.003906 35.839844 42.023438 35.839844 C 41.597656 37.117188 41.347656 38.46875 41.347656 39.882812 C 41.347656 46.878906 47.015625 52.542969 54.019531 52.542969 C 61.019531 52.542969 66.6875 46.878906 66.6875 39.882812 C 66.6875 38.46875 66.4375 37.117188 66.011719 35.839844 C 72.144531 37.734375 77.925781 41.097656 82.800781 45.933594 C 66.902344 61.84375 41.117188 61.84375 25.195312 45.953125 Z M 25.195312 45.953125 "/>
</g>
<g clip-path="url(#clip2)" clip-rule="nonzero">
<path style=" stroke:none;fill-rule:nonzero;fill:rgb(98.429871%,72.158813%,10.5896%);fill-opacity:1;" d="M 79.4375 62.363281 L 85.085938 68.011719 C 89.515625 61.785156 92.144531 54.167969 92.144531 45.933594 C 92.125 24.898438 75.0625 7.847656 54 7.847656 C 32.953125 7.847656 15.890625 24.898438 15.890625 45.953125 C 15.890625 67.003906 32.953125 84.054688 54.019531 84.054688 C 62.257812 84.054688 69.859375 81.445312 76.109375 77 L 70.460938 71.355469 Z M 25.195312 45.953125 C 30.070312 41.078125 35.855469 37.714844 42.003906 35.839844 C 43.6875 30.832031 48.425781 27.238281 54 27.238281 C 59.570312 27.238281 64.289062 30.851562 65.992188 35.839844 C 72.144531 37.734375 77.925781 41.097656 82.800781 45.953125 C 66.902344 61.84375 41.117188 61.84375 25.195312 45.953125 Z M 25.195312 45.953125 "/>
</g>
<g clip-path="url(#clip3)" clip-rule="nonzero">
<path style=" stroke:none;fill-rule:nonzero;fill:rgb(66.268921%,65.489197%,70.979309%);fill-opacity:1;" d="M 41.347656 39.882812 C 41.347656 38.46875 41.597656 37.097656 42.023438 35.820312 C 49.820312 33.425781 58.195312 33.425781 66.011719 35.820312 C 66.4375 37.097656 66.6875 38.449219 66.6875 39.882812 C 66.6875 46.878906 61.019531 52.542969 54.019531 52.542969 C 47.015625 52.542969 41.347656 46.878906 41.347656 39.882812 Z M 85.085938 68.03125 C 82.609375 71.507812 79.570312 74.542969 76.089844 77.019531 L 94.832031 95.753906 L 103.828125 86.761719 Z M 85.085938 68.03125 "/>
</g>
<g clip-path="url(#clip4)" clip-rule="nonzero">
<path style=" stroke:none;fill-rule:nonzero;fill:rgb(39.608765%,8.239746%,86.669922%);fill-opacity:1;" d="M 44.132812 91.789062 L 52.664062 100.316406 L 49.820312 103.15625 L 44.152344 97.492188 L 37.109375 104.511719 L 30.28125 97.6875 L 23.667969 104.296875 L 16.992188 97.628906 L 11.421875 103.195312 L 8.578125 100.335938 L 16.992188 91.925781 L 23.667969 98.59375 L 30.28125 91.984375 L 37.109375 98.808594 Z M 65.992188 35.839844 C 64.308594 30.832031 59.570312 27.238281 54 27.238281 C 48.425781 27.238281 43.707031 30.851562 42.003906 35.839844 C 49.820312 33.445312 58.195312 33.445312 65.992188 35.839844 Z M 85.085938 68.03125 L 79.4375 62.363281 L 70.441406 71.355469 L 76.089844 77 C 79.570312 74.523438 82.609375 71.488281 85.085938 68.03125 Z M 85.085938 68.03125 "/>
</g>
</g>
</svg>
