<?xml version="1.0" encoding="UTF-8"?>
<svg xmlns="http://www.w3.org/2000/svg" xmlns:xlink="http://www.w3.org/1999/xlink" width="37.5pt" height="37.499999pt" viewBox="0 0 37.5 37.499999" version="1.2">
<defs>
<clipPath id="clip1">
  <path d="M 20 23 L 30 23 L 30 31.539062 L 20 31.539062 Z M 20 23 "/>
</clipPath>
<clipPath id="clip2">
  <path d="M 4.1875 6.039062 L 30 6.039062 L 30 31.539062 L 4.1875 31.539062 Z M 4.1875 6.039062 "/>
</clipPath>
<clipPath id="clip3">
  <path d="M 20 16 L 33.4375 16 L 33.4375 31.539062 L 20 31.539062 Z M 20 16 "/>
</clipPath>
<clipPath id="clip4">
  <path d="M 4.1875 6.039062 L 30 6.039062 L 30 31.539062 L 4.1875 31.539062 Z M 4.1875 6.039062 "/>
</clipPath>
</defs>
<g id="surface1">
<g clip-path="url(#clip1)" clip-rule="nonzero">
<path style=" stroke:none;fill-rule:nonzero;fill:rgb(98.429871%,72.158813%,10.5896%);fill-opacity:1;" d="M 28.207031 24.378906 C 27.441406 23.554688 26.359375 23.039062 25.15625 23.039062 C 22.839844 23.039062 20.964844 24.941406 20.964844 27.289062 C 20.964844 29.636719 22.839844 31.539062 25.15625 31.539062 C 27.46875 31.539062 29.347656 29.636719 29.347656 27.289062 C 29.347656 26.578125 29.171875 25.90625 28.867188 25.320312 "/>
</g>
<path style=" stroke:none;fill-rule:nonzero;fill:rgb(98.429871%,72.158813%,10.5896%);fill-opacity:1;" d="M 28.871094 25.316406 L 30.328125 23.839844 L 29.539062 23.027344 L 28.210938 24.375 "/>
<g clip-path="url(#clip2)" clip-rule="nonzero">
<path style=" stroke:none;fill-rule:nonzero;fill:rgb(100%,33.329773%,33.329773%);fill-opacity:1;" d="M 21.007812 10.855469 L 21.003906 10.855469 C 21.277344 12.9375 23.03125 14.535156 25.15625 14.535156 C 27.46875 14.535156 29.347656 12.632812 29.347656 10.285156 C 29.347656 7.941406 27.46875 6.039062 25.15625 6.039062 C 23.03125 6.039062 21.277344 7.644531 21.003906 9.71875 L 16.210938 9.71875 L 16.210938 18.214844 L 7.828125 18.214844 L 7.828125 23.082031 C 5.773438 23.359375 4.195312 25.132812 4.195312 27.289062 C 4.195312 29.636719 6.074219 31.539062 8.386719 31.539062 C 10.703125 31.539062 12.578125 29.636719 12.578125 27.289062 C 12.578125 25.136719 11 23.359375 8.949219 23.082031 L 8.949219 19.359375 L 17.332031 19.359375 L 17.332031 10.855469 L 21.003906 10.855469 "/>
</g>
<g clip-path="url(#clip3)" clip-rule="nonzero">
<path style=" stroke:none;fill-rule:nonzero;fill:rgb(98.429871%,72.158813%,10.5896%);fill-opacity:1;" d="M 33.425781 19.417969 L 32.601562 20.253906 L 30.964844 18.59375 L 28.9375 20.652344 L 26.96875 18.65625 L 25.054688 20.59375 L 23.132812 18.640625 L 21.523438 20.273438 L 20.699219 19.429688 L 23.125 16.972656 L 25.050781 18.921875 L 26.960938 16.984375 L 28.929688 18.980469 L 30.960938 16.925781 Z M 22.710938 26.960938 L 23.507812 26.15625 L 24.980469 27.648438 L 28.207031 24.378906 C 27.441406 23.554688 26.359375 23.039062 25.15625 23.039062 C 22.839844 23.039062 20.964844 24.941406 20.964844 27.289062 C 20.964844 29.636719 22.839844 31.539062 25.15625 31.539062 C 27.46875 31.539062 29.347656 29.636719 29.347656 27.289062 C 29.347656 26.578125 29.171875 25.90625 28.867188 25.320312 L 24.972656 29.269531 Z M 22.710938 26.960938 "/>
</g>
<path style=" stroke:none;fill-rule:nonzero;fill:rgb(24.308777%,6.669617%,56.858826%);fill-opacity:1;" d="M 30.328125 23.839844 L 28.871094 25.316406 C 28.699219 24.972656 28.46875 24.65625 28.210938 24.375 L 29.539062 23.027344 Z M 20.96875 10.285156 C 20.96875 10.089844 20.988281 9.902344 21.007812 9.71875 L 16.210938 9.71875 L 16.210938 18.214844 L 7.828125 18.214844 L 7.828125 23.082031 C 8.015625 23.058594 8.195312 23.039062 8.386719 23.039062 C 8.582031 23.039062 8.769531 23.058594 8.949219 23.082031 L 8.949219 19.359375 L 17.332031 19.359375 L 17.332031 10.855469 L 21.003906 10.855469 C 20.980469 10.671875 20.96875 10.480469 20.96875 10.285156 Z M 20.96875 10.285156 "/>
<path style=" stroke:none;fill-rule:nonzero;fill:rgb(32.548523%,17.248535%,81.17981%);fill-opacity:1;" d="M 28.207031 24.378906 C 28.46875 24.65625 28.691406 24.976562 28.867188 25.320312 L 24.972656 29.269531 L 22.707031 26.96875 L 23.5 26.164062 L 24.972656 27.65625 Z M 20.96875 10.285156 C 20.96875 10.480469 20.988281 10.671875 21.007812 10.855469 L 24.832031 10.855469 L 23.429688 12.285156 L 24.226562 13.089844 L 26.992188 10.285156 L 24.226562 7.484375 L 23.429688 8.289062 L 24.832031 9.71875 L 21.003906 9.71875 C 20.980469 9.902344 20.96875 10.089844 20.96875 10.285156 Z M 8.386719 23.039062 C 8.195312 23.039062 8.007812 23.058594 7.828125 23.082031 L 7.828125 27.289062 L 8.949219 27.289062 L 8.949219 23.082031 C 8.769531 23.050781 8.582031 23.039062 8.386719 23.039062 Z M 8.386719 23.039062 "/>
<g clip-path="url(#clip4)" clip-rule="nonzero">
<path style=" stroke:none;fill-rule:nonzero;fill:rgb(100%,33.329773%,33.329773%);fill-opacity:1;" d="M 24.832031 9.71875 L 21.003906 9.71875 C 21.277344 7.644531 23.03125 6.039062 25.15625 6.039062 C 27.46875 6.039062 29.347656 7.941406 29.347656 10.285156 C 29.347656 12.632812 27.46875 14.535156 25.15625 14.535156 C 23.03125 14.535156 21.277344 12.9375 21.003906 10.855469 L 24.832031 10.855469 L 23.429688 12.285156 L 24.226562 13.089844 L 26.992188 10.285156 L 24.226562 7.484375 L 23.429688 8.289062 Z M 7.828125 27.289062 L 7.828125 23.082031 C 5.773438 23.359375 4.195312 25.132812 4.195312 27.289062 C 4.195312 29.636719 6.074219 31.539062 8.386719 31.539062 C 10.703125 31.539062 12.578125 29.636719 12.578125 27.289062 C 12.578125 25.136719 11 23.359375 8.949219 23.082031 L 8.949219 27.289062 Z M 4.195312 10.285156 C 4.195312 7.941406 6.074219 6.039062 8.386719 6.039062 C 10.703125 6.039062 12.578125 7.941406 12.578125 10.285156 C 12.578125 12.632812 10.703125 14.535156 8.386719 14.535156 C 6.074219 14.535156 4.195312 12.632812 4.195312 10.285156 Z M 10.125 12.851562 L 8.386719 11.09375 L 6.65625 12.851562 C 7.148438 13.195312 7.746094 13.398438 8.386719 13.398438 C 9.03125 13.398438 9.628906 13.195312 10.125 12.851562 Z M 10.917969 8.53125 L 9.183594 10.285156 L 10.914062 12.039062 C 11.253906 11.542969 11.453125 10.9375 11.453125 10.285156 C 11.453125 9.636719 11.257812 9.03125 10.917969 8.53125 Z M 6.65625 7.726562 L 8.386719 9.480469 L 10.117188 7.726562 C 9.628906 7.382812 9.03125 7.179688 8.386719 7.179688 C 7.746094 7.175781 7.148438 7.382812 6.65625 7.726562 Z M 5.320312 10.285156 C 5.320312 10.9375 5.515625 11.542969 5.855469 12.039062 L 7.585938 10.285156 L 5.863281 8.53125 C 5.523438 9.03125 5.320312 9.636719 5.320312 10.285156 Z M 5.320312 10.285156 "/>
</g>
</g>
</svg>
