<?xml version="1.0" encoding="UTF-8"?>
<svg xmlns="http://www.w3.org/2000/svg" xmlns:xlink="http://www.w3.org/1999/xlink" width="112.5pt" height="112.499997pt" viewBox="0 0 112.5 112.499997" version="1.2">
<defs>
<clipPath id="clip1">
  <path d="M 0 7.363281 L 112.003906 7.363281 L 112.003906 101 L 0 101 Z M 0 7.363281 "/>
</clipPath>
<clipPath id="clip2">
  <path d="M 40 7.363281 L 112.003906 7.363281 L 112.003906 86 L 40 86 Z M 40 7.363281 "/>
</clipPath>
</defs>
<g id="surface1">
<path style=" stroke:none;fill-rule:nonzero;fill:rgb(66.268921%,65.489197%,70.979309%);fill-opacity:1;" d="M 58.535156 50.132812 C 58.535156 50.109375 58.535156 50.085938 58.535156 50.0625 C 58.535156 50.042969 58.535156 50.019531 58.535156 49.996094 C 58.535156 49.953125 58.535156 49.929688 58.535156 49.886719 C 58.535156 49.929688 58.511719 49.972656 58.511719 50.019531 L 58.511719 50.132812 Z M 58.535156 50.132812 "/>
<g clip-path="url(#clip1)" clip-rule="nonzero">
<path style=" stroke:none;fill-rule:nonzero;fill:rgb(66.268921%,65.489197%,70.979309%);fill-opacity:1;" d="M 40.988281 11.3125 L 0 11.3125 L 0 100.96875 L 89.9375 100.96875 L 89.9375 78.433594 L 96.574219 85.046875 L 103.773438 77.871094 L 109.574219 83.65625 L 112.5 80.742188 L 103.773438 72.0625 L 96.574219 79.238281 L 89.9375 72.625 L 89.9375 60.179688 L 90.027344 60.179688 L 90.027344 60.109375 L 93.917969 60.109375 L 93.917969 7.34375 L 40.988281 7.34375 L 40.988281 11.3125 L 41.097656 11.3125 M 76.460938 56.207031 L 76.460938 51.140625 C 76.460938 50.511719 76.394531 49.90625 76.28125 49.324219 C 76.167969 48.742188 75.988281 48.179688 75.765625 47.640625 C 75.585938 47.214844 75.359375 46.8125 75.113281 46.410156 C 75.046875 46.273438 74.953125 46.140625 74.863281 46.027344 C 74.460938 45.445312 73.988281 44.90625 73.449219 44.433594 C 73.269531 44.257812 73.042969 44.097656 72.839844 43.941406 C 72.480469 43.671875 72.074219 43.402344 71.648438 43.203125 C 71.332031 43.023438 71.019531 42.886719 70.679688 42.753906 C 69.804688 42.417969 68.859375 42.214844 67.890625 42.171875 C 67.757812 42.171875 67.621094 42.171875 67.488281 42.171875 L 67.148438 42.171875 C 66.902344 42.171875 66.632812 42.191406 66.382812 42.238281 C 66.292969 42.238281 66.226562 42.261719 66.136719 42.261719 C 66 42.28125 65.867188 42.328125 65.730469 42.351562 L 65.6875 42.351562 C 65.417969 42.417969 65.148438 42.460938 64.898438 42.527344 C 64.605469 42.617188 64.292969 42.753906 64.023438 42.867188 C 64.023438 42.886719 64.023438 42.886719 64 42.886719 C 64 42.886719 63.976562 42.886719 63.976562 42.910156 C 63.976562 42.910156 63.953125 42.910156 63.933594 42.933594 C 63.933594 42.933594 63.933594 42.933594 63.910156 42.933594 C 63.84375 42.957031 63.796875 42.976562 63.730469 43 C 63.390625 43.15625 63.054688 43.335938 62.738281 43.539062 C 62.671875 43.582031 62.605469 43.605469 62.539062 43.652344 C 62.539062 43.652344 62.539062 43.652344 62.515625 43.671875 C 62.492188 43.671875 62.492188 43.671875 62.46875 43.671875 L 62.449219 43.695312 C 62.449219 43.695312 62.449219 43.695312 62.425781 43.695312 C 62.425781 43.695312 62.425781 43.695312 62.402344 43.695312 C 62.359375 43.71875 62.3125 43.761719 62.265625 43.785156 C 61.773438 44.144531 61.324219 44.546875 60.917969 44.996094 C 60.671875 45.242188 60.46875 45.511719 60.265625 45.78125 C 60.019531 46.09375 59.816406 46.429688 59.636719 46.789062 C 59.277344 47.441406 59.003906 48.113281 58.824219 48.851562 C 58.804688 48.941406 58.78125 49.03125 58.757812 49.121094 C 58.734375 49.234375 58.714844 49.347656 58.691406 49.457031 C 58.691406 49.503906 58.667969 49.546875 58.667969 49.59375 C 58.667969 49.660156 58.644531 49.726562 58.644531 49.773438 C 58.644531 49.796875 58.644531 49.796875 58.644531 49.816406 C 58.644531 49.90625 58.625 49.972656 58.625 50.0625 C 58.601562 50.222656 58.578125 50.355469 58.578125 50.511719 C 58.578125 50.601562 58.578125 50.691406 58.554688 50.804688 L 58.554688 56.097656 L 45.058594 56.097656 L 45.058594 42.640625 L 40.042969 42.640625 C 39.726562 42.640625 39.414062 42.617188 39.121094 42.597656 C 36.984375 42.371094 35.09375 41.429688 33.675781 40.019531 C 33.382812 39.726562 33.136719 39.410156 32.886719 39.074219 C 32.6875 38.804688 32.484375 38.515625 32.304688 38.222656 C 32.101562 37.886719 31.898438 37.527344 31.761719 37.167969 C 31.3125 36.09375 31.042969 34.925781 31.042969 33.695312 C 31.042969 32.460938 31.292969 31.316406 31.742188 30.238281 C 31.875 29.902344 32.054688 29.542969 32.234375 29.207031 C 32.507812 28.761719 32.777344 28.355469 33.113281 27.976562 C 33.652344 27.300781 34.304688 26.742188 35.027344 26.25 C 36.464844 25.285156 38.199219 24.722656 40.066406 24.722656 L 45.082031 24.722656 L 45.082031 11.3125 L 89.9375 11.3125 L 89.9375 56.207031 Z M 76.460938 56.207031 "/>
</g>
<path style=" stroke:none;fill-rule:nonzero;fill:rgb(66.268921%,65.489197%,70.979309%);fill-opacity:1;" d="M 58.578125 49.773438 C 58.578125 49.796875 58.578125 49.816406 58.578125 49.839844 C 58.578125 49.773438 58.601562 49.707031 58.601562 49.660156 C 58.601562 49.636719 58.601562 49.617188 58.601562 49.59375 C 58.601562 49.570312 58.601562 49.570312 58.601562 49.546875 C 58.601562 49.546875 58.601562 49.527344 58.601562 49.503906 C 58.601562 49.617188 58.601562 49.683594 58.578125 49.773438 Z M 58.578125 49.773438 "/>
<path style=" stroke:none;fill-rule:nonzero;fill:rgb(66.268921%,65.489197%,70.979309%);fill-opacity:1;" d="M 58.535156 49.996094 C 58.535156 50.019531 58.535156 50.042969 58.535156 50.0625 C 58.535156 50.085938 58.535156 50.109375 58.535156 50.132812 L 58.535156 49.996094 C 58.535156 49.953125 58.535156 49.929688 58.535156 49.886719 C 58.554688 49.929688 58.554688 49.972656 58.535156 49.996094 Z M 58.625 49.546875 C 58.625 49.546875 58.625 49.570312 58.625 49.59375 C 58.625 49.617188 58.625 49.636719 58.625 49.660156 C 58.625 49.707031 58.601562 49.773438 58.601562 49.839844 C 58.601562 49.816406 58.601562 49.796875 58.601562 49.773438 C 58.601562 49.683594 58.625 49.617188 58.644531 49.546875 C 58.625 49.546875 58.625 49.546875 58.625 49.546875 Z M 58.625 49.546875 "/>
<path style=" stroke:none;fill-rule:nonzero;fill:rgb(39.608765%,8.239746%,86.669922%);fill-opacity:1;" d="M 49.984375 87.535156 C 50.300781 87.535156 50.59375 87.515625 50.90625 87.492188 C 51.808594 87.402344 52.683594 87.179688 53.496094 86.84375 C 54.304688 86.503906 55.046875 86.058594 55.722656 85.496094 C 56.171875 85.136719 56.578125 84.734375 56.9375 84.285156 C 57.296875 83.835938 57.632812 83.367188 57.902344 82.851562 C 58.039062 82.601562 58.171875 82.335938 58.285156 82.066406 C 58.734375 80.988281 58.984375 79.824219 58.984375 78.566406 C 58.984375 78.1875 58.960938 77.804688 58.914062 77.421875 C 58.578125 74.800781 57.117188 72.535156 55.023438 71.121094 C 53.832031 70.3125 52.4375 69.796875 50.90625 69.640625 C 50.613281 69.617188 50.300781 69.597656 49.984375 69.597656 L 44.96875 69.597656 L 44.96875 60.132812 L 40.988281 60.132812 L 40.988281 56.164062 L 31.472656 56.164062 L 31.472656 61.164062 C 31.472656 65.808594 27.9375 69.621094 23.394531 70.089844 C 23.101562 70.113281 22.789062 70.136719 22.472656 70.136719 C 20.605469 70.136719 18.875 69.574219 17.433594 68.609375 C 15.070312 66.972656 13.496094 64.238281 13.496094 61.140625 L 13.496094 56.140625 L 0 56.140625 L 0 100.96875 L 44.96875 100.96875 L 44.96875 87.515625 L 49.984375 87.515625 Z M 49.984375 87.535156 "/>
<path style=" stroke:none;fill-rule:nonzero;fill:rgb(98.429871%,72.158813%,10.5896%);fill-opacity:1;" d="M 89.597656 78.097656 L 89.9375 78.433594 L 89.9375 100.96875 L 44.96875 100.96875 L 44.96875 87.515625 L 49.984375 87.515625 C 50.300781 87.515625 50.59375 87.492188 50.90625 87.46875 C 51.808594 87.378906 52.683594 87.15625 53.496094 86.820312 C 54.304688 86.484375 55.046875 86.035156 55.722656 85.472656 C 56.171875 85.113281 56.578125 84.710938 56.9375 84.261719 C 57.296875 83.8125 57.632812 83.34375 57.902344 82.828125 C 58.039062 82.582031 58.171875 82.3125 58.285156 82.042969 C 58.734375 80.964844 58.984375 79.800781 58.984375 78.542969 C 58.984375 78.164062 58.960938 77.78125 58.914062 77.402344 C 58.578125 74.777344 57.117188 72.511719 55.023438 71.097656 C 53.832031 70.292969 52.4375 69.777344 50.90625 69.617188 C 50.613281 69.597656 50.300781 69.574219 49.984375 69.574219 L 44.96875 69.574219 L 44.96875 60.109375 L 62.449219 60.109375 L 62.449219 51.140625 C 62.449219 50.535156 62.558594 49.972656 62.761719 49.457031 C 62.898438 49.078125 63.078125 48.71875 63.28125 48.40625 C 63.28125 48.40625 63.28125 48.382812 63.300781 48.359375 C 63.324219 48.316406 63.371094 48.292969 63.390625 48.246094 C 63.414062 48.226562 63.4375 48.203125 63.460938 48.179688 C 63.550781 48.066406 63.640625 47.980469 63.730469 47.867188 C 63.820312 47.777344 63.886719 47.664062 64 47.574219 C 64.179688 47.417969 64.359375 47.261719 64.5625 47.125 C 65.371094 46.542969 66.382812 46.183594 67.464844 46.183594 C 68.5 46.183594 69.464844 46.5 70.253906 47.035156 C 70.277344 47.058594 70.296875 47.082031 70.320312 47.082031 C 71.601562 47.980469 72.457031 49.480469 72.457031 51.164062 L 72.457031 60.132812 L 89.9375 60.132812 L 89.9375 72.648438 L 89.597656 72.308594 L 82.828125 79.058594 L 76.011719 72.265625 L 67.417969 80.832031 L 70.34375 83.746094 L 76.035156 78.074219 L 82.851562 84.867188 Z M 63.664062 43.046875 C 63.730469 43.023438 63.796875 43 63.863281 42.976562 C 63.796875 42.976562 63.730469 43 63.664062 43.046875 Z M 62.695312 43.582031 C 62.671875 43.605469 62.628906 43.605469 62.605469 43.628906 C 62.628906 43.628906 62.648438 43.605469 62.695312 43.582031 Z M 70.660156 42.777344 C 69.667969 42.394531 68.589844 42.191406 67.464844 42.191406 C 67.441406 42.191406 67.398438 42.191406 67.375 42.191406 C 67.398438 42.191406 67.417969 42.191406 67.464844 42.191406 C 68.589844 42.191406 69.667969 42.394531 70.660156 42.777344 Z M 66.226562 42.28125 C 66.273438 42.28125 66.292969 42.28125 66.339844 42.28125 C 66.316406 42.28125 66.273438 42.261719 66.226562 42.28125 Z M 66.089844 42.28125 C 66.136719 42.28125 66.183594 42.28125 66.226562 42.261719 C 66.183594 42.28125 66.136719 42.28125 66.089844 42.28125 Z M 62.359375 43.761719 L 62.378906 43.738281 C 62.378906 43.761719 62.378906 43.761719 62.359375 43.761719 Z M 62.582031 43.628906 C 62.539062 43.652344 62.515625 43.671875 62.46875 43.695312 C 62.515625 43.671875 62.558594 43.652344 62.582031 43.628906 Z M 76.460938 56.140625 L 89.960938 56.140625 Z M 13.496094 61.140625 C 13.496094 64.238281 15.070312 66.972656 17.457031 68.585938 C 18.894531 69.550781 20.628906 70.113281 22.496094 70.113281 C 22.808594 70.113281 23.101562 70.089844 23.417969 70.066406 C 27.960938 69.617188 31.492188 65.785156 31.492188 61.140625 L 31.492188 56.140625 L 41.007812 56.140625 L 41.007812 46.65625 L 39.972656 46.65625 C 32.820312 46.65625 26.996094 40.847656 26.996094 33.714844 C 26.996094 26.585938 32.796875 20.800781 39.953125 20.800781 L 40.988281 20.800781 L 40.988281 11.3125 L 0 11.3125 L 0 56.140625 L 13.496094 56.140625 Z M 58.464844 56.140625 L 44.96875 56.140625 Z M 58.464844 56.140625 "/>
<g clip-path="url(#clip2)" clip-rule="nonzero">
<path style=" stroke:none;fill-rule:nonzero;fill:rgb(66.268921%,65.489197%,70.979309%);fill-opacity:1;" d="M 40.988281 11.3125 L 40.988281 7.34375 L 93.917969 7.34375 L 93.917969 60.109375 L 89.9375 60.109375 L 89.9375 11.3125 Z M 58.464844 51.140625 C 58.464844 50.378906 58.578125 49.636719 58.757812 48.921875 C 58.578125 49.636719 58.464844 50.378906 58.464844 51.140625 L 58.464844 56.140625 Z M 44.96875 56.140625 L 40.988281 56.140625 Z M 103.773438 72.0625 L 96.574219 79.238281 L 89.9375 72.625 L 89.9375 78.433594 L 96.574219 85.046875 L 103.773438 77.871094 L 109.574219 83.65625 L 112.5 80.742188 Z M 103.773438 72.0625 "/>
</g>
<path style=" stroke:none;fill-rule:nonzero;fill:rgb(66.268921%,65.489197%,70.979309%);fill-opacity:1;" d="M 89.597656 72.289062 L 89.9375 72.625 L 89.9375 78.433594 L 89.597656 78.097656 L 82.828125 84.847656 L 76.011719 78.050781 L 70.320312 83.726562 L 67.398438 80.808594 L 75.988281 72.242188 L 82.804688 79.039062 Z M 44.96875 56.140625 L 51.71875 56.140625 Z M 58.535156 50.132812 C 58.535156 50.042969 58.554688 49.972656 58.554688 49.886719 C 58.554688 49.929688 58.535156 49.972656 58.535156 50.019531 C 58.535156 50.042969 58.535156 50.085938 58.535156 50.132812 Z M 58.625 49.527344 C 58.601562 49.636719 58.578125 49.726562 58.578125 49.839844 C 58.578125 49.773438 58.601562 49.707031 58.601562 49.660156 C 58.601562 49.617188 58.625 49.570312 58.625 49.527344 Z M 51.71875 56.140625 L 44.96875 56.140625 L 58.464844 56.140625 Z M 63.863281 42.957031 C 63.863281 42.957031 63.886719 42.957031 63.910156 42.957031 C 63.886719 42.957031 63.886719 42.957031 63.863281 42.957031 Z M 76.460938 56.140625 L 76.460938 51.140625 C 76.460938 50.511719 76.394531 49.90625 76.28125 49.324219 C 76.167969 48.742188 75.988281 48.179688 75.765625 47.640625 C 75.585938 47.214844 75.359375 46.8125 75.113281 46.410156 C 75.046875 46.273438 74.953125 46.140625 74.863281 46.027344 C 74.460938 45.445312 73.988281 44.90625 73.449219 44.433594 C 73.269531 44.257812 73.042969 44.097656 72.839844 43.941406 C 72.480469 43.671875 72.074219 43.402344 71.648438 43.203125 C 71.332031 43.023438 71.019531 42.886719 70.679688 42.753906 C 69.691406 42.371094 68.609375 42.171875 67.488281 42.171875 C 67.464844 42.171875 67.417969 42.171875 67.398438 42.171875 C 67.058594 42.171875 66.722656 42.191406 66.382812 42.238281 C 66.292969 42.238281 66.226562 42.261719 66.136719 42.261719 C 66 42.28125 65.867188 42.328125 65.730469 42.351562 C 65.710938 42.351562 65.710938 42.351562 65.6875 42.351562 C 65.417969 42.417969 65.148438 42.460938 64.898438 42.527344 C 64.605469 42.617188 64.292969 42.753906 64.023438 42.867188 C 64.023438 42.886719 64.023438 42.886719 64 42.886719 C 64 42.886719 63.976562 42.886719 63.976562 42.910156 C 63.976562 42.910156 63.953125 42.910156 63.933594 42.933594 C 63.933594 42.933594 63.933594 42.933594 63.910156 42.933594 C 63.84375 42.957031 63.796875 42.976562 63.730469 43 C 63.390625 43.15625 63.054688 43.335938 62.738281 43.539062 C 62.671875 43.582031 62.605469 43.605469 62.539062 43.652344 C 62.515625 43.671875 62.492188 43.671875 62.46875 43.671875 L 62.449219 43.695312 C 62.449219 43.695312 62.449219 43.695312 62.425781 43.695312 C 62.425781 43.695312 62.425781 43.695312 62.402344 43.695312 C 62.359375 43.71875 62.3125 43.761719 62.265625 43.785156 C 61.773438 44.144531 61.324219 44.546875 60.917969 44.996094 C 60.671875 45.242188 60.46875 45.511719 60.265625 45.78125 C 60.019531 46.09375 59.816406 46.429688 59.636719 46.789062 C 59.277344 47.441406 59.003906 48.113281 58.824219 48.851562 C 58.804688 48.941406 58.78125 49.03125 58.757812 49.121094 C 58.734375 49.234375 58.714844 49.347656 58.691406 49.457031 C 58.691406 49.503906 58.667969 49.546875 58.667969 49.59375 C 58.667969 49.660156 58.644531 49.726562 58.644531 49.773438 C 58.644531 49.796875 58.644531 49.796875 58.644531 49.816406 C 58.644531 49.90625 58.625 49.972656 58.625 50.0625 C 58.601562 50.222656 58.578125 50.355469 58.578125 50.511719 C 58.578125 50.601562 58.578125 50.691406 58.554688 50.804688 C 58.554688 50.894531 58.554688 51.007812 58.554688 51.097656 L 58.554688 56.097656 L 45.058594 56.097656 L 45.058594 42.640625 L 40.042969 42.640625 C 37.546875 42.640625 35.296875 41.632812 33.675781 40.019531 C 33.382812 39.726562 33.136719 39.414062 32.886719 39.074219 C 32.6875 38.804688 32.484375 38.515625 32.304688 38.222656 C 32.101562 37.886719 31.898438 37.527344 31.761719 37.167969 C 31.3125 36.09375 31.042969 34.925781 31.042969 33.695312 C 31.042969 32.460938 31.292969 31.316406 31.742188 30.238281 C 31.875 29.902344 32.054688 29.546875 32.234375 29.207031 C 32.507812 28.761719 32.777344 28.355469 33.113281 27.976562 C 33.652344 27.300781 34.304688 26.742188 35.027344 26.25 C 36.464844 25.285156 38.199219 24.722656 40.066406 24.722656 L 45.082031 24.722656 L 45.082031 11.269531 L 41.097656 11.269531 L 41.097656 20.800781 L 40.066406 20.800781 C 36.488281 20.800781 33.25 22.257812 30.886719 24.589844 C 30.078125 25.394531 29.378906 26.316406 28.792969 27.300781 C 28.636719 27.570312 28.5 27.839844 28.34375 28.132812 C 28.210938 28.421875 28.074219 28.691406 27.960938 28.984375 C 27.894531 29.1875 27.804688 29.386719 27.738281 29.589844 C 27.285156 30.890625 27.0625 32.28125 27.0625 33.738281 C 27.0625 34.636719 27.152344 35.511719 27.332031 36.339844 C 27.445312 36.855469 27.578125 37.371094 27.757812 37.886719 C 27.828125 38.089844 27.894531 38.289062 27.984375 38.492188 C 28.050781 38.695312 28.140625 38.875 28.230469 39.074219 C 28.320312 39.253906 28.410156 39.457031 28.5 39.636719 C 28.589844 39.816406 28.703125 39.996094 28.792969 40.195312 C 29.355469 41.183594 30.078125 42.101562 30.886719 42.910156 C 31.109375 43.132812 31.335938 43.335938 31.5625 43.539062 C 31.808594 43.738281 32.035156 43.941406 32.28125 44.121094 C 32.4375 44.234375 32.617188 44.367188 32.796875 44.480469 C 34.867188 45.871094 37.363281 46.699219 40.042969 46.699219 L 41.078125 46.699219 L 41.078125 60.15625 L 62.539062 60.15625 L 62.539062 51.183594 C 62.539062 50.578125 62.648438 50.019531 62.851562 49.503906 C 62.988281 49.121094 63.167969 48.761719 63.371094 48.449219 C 63.371094 48.449219 63.371094 48.425781 63.390625 48.40625 C 63.414062 48.359375 63.460938 48.335938 63.480469 48.292969 C 63.503906 48.269531 63.527344 48.246094 63.550781 48.226562 C 63.640625 48.113281 63.730469 48.023438 63.820312 47.910156 C 63.910156 47.800781 63.976562 47.710938 64.089844 47.621094 C 64.269531 47.460938 64.449219 47.304688 64.652344 47.171875 C 65.460938 46.589844 66.453125 46.230469 67.554688 46.230469 C 68.589844 46.230469 69.554688 46.542969 70.34375 47.082031 C 70.367188 47.105469 70.386719 47.125 70.410156 47.125 C 71.714844 48.023438 72.546875 49.527344 72.546875 51.207031 L 72.546875 60.179688 L 90.027344 60.179688 L 90.027344 56.207031 L 76.460938 56.207031 Z M 76.460938 56.140625 "/>
</g>
</svg>
