<?xml version="1.0" encoding="UTF-8"?>
<svg xmlns="http://www.w3.org/2000/svg" xmlns:xlink="http://www.w3.org/1999/xlink" width="112.5pt" height="112.499997pt" viewBox="0 0 112.5 112.499997" version="1.2">
<defs>
<clipPath id="clip1">
  <path d="M 64 71 L 97 71 L 97 103.445312 L 64 103.445312 Z M 64 71 "/>
</clipPath>
<clipPath id="clip2">
  <path d="M 0 6.695312 L 97 6.695312 L 97 103.445312 L 0 103.445312 Z M 0 6.695312 "/>
</clipPath>
<clipPath id="clip3">
  <path d="M 63 47 L 112.003906 47 L 112.003906 103.445312 L 63 103.445312 Z M 63 47 "/>
</clipPath>
<clipPath id="clip4">
  <path d="M 0 6.695312 L 97 6.695312 L 97 103.445312 L 0 103.445312 Z M 0 6.695312 "/>
</clipPath>
</defs>
<g id="surface1">
<g clip-path="url(#clip1)" clip-rule="nonzero">
<path style=" stroke:none;fill-rule:nonzero;fill:rgb(98.429871%,72.158813%,10.5896%);fill-opacity:1;" d="M 92.382812 76.28125 C 89.4375 73.15625 85.277344 71.199219 80.644531 71.199219 C 71.742188 71.199219 64.523438 78.417969 64.523438 87.320312 C 64.523438 96.226562 71.742188 103.445312 80.644531 103.445312 C 89.550781 103.445312 96.765625 96.226562 96.765625 87.320312 C 96.765625 84.625 96.09375 82.082031 94.921875 79.855469 "/>
</g>
<path style=" stroke:none;fill-rule:nonzero;fill:rgb(98.429871%,72.158813%,10.5896%);fill-opacity:1;" d="M 94.945312 79.835938 L 100.542969 74.234375 L 97.507812 71.15625 L 92.40625 76.261719 "/>
<g clip-path="url(#clip2)" clip-rule="nonzero">
<path style=" stroke:none;fill-rule:nonzero;fill:rgb(66.268921%,65.489197%,70.979309%);fill-opacity:1;" d="M 64.703125 24.972656 L 64.679688 24.972656 C 65.738281 32.863281 72.484375 38.9375 80.644531 38.9375 C 89.550781 38.9375 96.765625 31.71875 96.765625 22.816406 C 96.765625 13.910156 89.550781 6.695312 80.644531 6.695312 C 72.484375 6.695312 65.738281 12.785156 64.679688 20.65625 L 46.246094 20.65625 L 46.246094 52.898438 L 14.003906 52.898438 L 14.003906 71.359375 C 6.109375 72.414062 0.0390625 79.136719 0.0390625 87.320312 C 0.0390625 96.226562 7.257812 103.445312 16.160156 103.445312 C 25.0625 103.445312 32.28125 96.226562 32.28125 87.320312 C 32.28125 79.160156 26.210938 72.414062 18.320312 71.359375 L 18.320312 57.238281 L 50.5625 57.238281 L 50.5625 24.972656 L 64.679688 24.972656 "/>
</g>
<g clip-path="url(#clip3)" clip-rule="nonzero">
<path style=" stroke:none;fill-rule:nonzero;fill:rgb(98.429871%,72.158813%,10.5896%);fill-opacity:1;" d="M 112.460938 57.464844 L 109.289062 60.632812 L 102.996094 54.335938 L 95.191406 62.140625 L 87.617188 54.5625 L 80.261719 61.914062 L 72.867188 54.515625 L 66.683594 60.699219 L 63.511719 57.507812 L 72.84375 48.175781 L 80.242188 55.574219 L 87.59375 48.222656 L 95.171875 55.800781 L 102.972656 47.996094 Z M 71.246094 86.085938 L 74.304688 83.027344 L 79.972656 88.695312 L 92.382812 76.28125 C 89.4375 73.15625 85.277344 71.199219 80.644531 71.199219 C 71.742188 71.199219 64.523438 78.417969 64.523438 87.320312 C 64.523438 96.226562 71.742188 103.445312 80.644531 103.445312 C 89.550781 103.445312 96.765625 96.226562 96.765625 87.320312 C 96.765625 84.625 96.09375 82.082031 94.921875 79.855469 L 79.949219 94.832031 Z M 71.246094 86.085938 "/>
</g>
<path style=" stroke:none;fill-rule:nonzero;fill:rgb(24.308777%,6.669617%,56.858826%);fill-opacity:1;" d="M 100.542969 74.234375 L 94.945312 79.835938 C 94.269531 78.53125 93.394531 77.339844 92.40625 76.261719 L 97.507812 71.15625 Z M 64.546875 22.816406 C 64.546875 22.074219 64.613281 21.351562 64.703125 20.65625 L 46.246094 20.65625 L 46.246094 52.898438 L 14.003906 52.898438 L 14.003906 71.359375 C 14.722656 71.269531 15.417969 71.199219 16.160156 71.199219 C 16.902344 71.199219 17.621094 71.269531 18.320312 71.359375 L 18.320312 57.238281 L 50.5625 57.238281 L 50.5625 24.972656 L 64.679688 24.972656 C 64.589844 24.277344 64.546875 23.554688 64.546875 22.816406 Z M 64.546875 22.816406 "/>
<path style=" stroke:none;fill-rule:nonzero;fill:rgb(39.608765%,8.239746%,86.669922%);fill-opacity:1;" d="M 92.382812 76.28125 C 93.394531 77.339844 94.25 78.554688 94.921875 79.855469 L 79.949219 94.832031 L 71.222656 86.109375 L 74.28125 83.050781 L 79.949219 88.714844 Z M 64.546875 22.816406 C 64.546875 23.554688 64.613281 24.277344 64.703125 24.972656 L 79.410156 24.972656 L 74.011719 30.390625 L 77.070312 33.449219 L 87.707031 22.816406 L 77.070312 12.179688 L 74.011719 15.238281 L 79.410156 20.65625 L 64.679688 20.65625 C 64.589844 21.351562 64.546875 22.074219 64.546875 22.816406 Z M 16.160156 71.199219 C 15.417969 71.199219 14.699219 71.269531 14.003906 71.359375 L 14.003906 87.320312 L 18.320312 87.320312 L 18.320312 71.359375 C 17.621094 71.246094 16.902344 71.199219 16.160156 71.199219 Z M 16.160156 71.199219 "/>
<g clip-path="url(#clip4)" clip-rule="nonzero">
<path style=" stroke:none;fill-rule:nonzero;fill:rgb(66.268921%,65.489197%,70.979309%);fill-opacity:1;" d="M 79.410156 20.65625 L 64.679688 20.65625 C 65.738281 12.785156 72.484375 6.695312 80.644531 6.695312 C 89.550781 6.695312 96.765625 13.910156 96.765625 22.816406 C 96.765625 31.71875 89.550781 38.9375 80.644531 38.9375 C 72.484375 38.9375 65.738281 32.863281 64.679688 24.972656 L 79.410156 24.972656 L 74.011719 30.390625 L 77.070312 33.449219 L 87.707031 22.816406 L 77.070312 12.179688 L 74.011719 15.238281 Z M 14.003906 87.320312 L 14.003906 71.359375 C 6.109375 72.414062 0.0390625 79.136719 0.0390625 87.320312 C 0.0390625 96.226562 7.257812 103.445312 16.160156 103.445312 C 25.0625 103.445312 32.28125 96.226562 32.28125 87.320312 C 32.28125 79.160156 26.210938 72.414062 18.320312 71.359375 L 18.320312 87.320312 Z M 0.0390625 22.816406 C 0.0390625 13.910156 7.257812 6.695312 16.160156 6.695312 C 25.0625 6.695312 32.28125 13.910156 32.28125 22.816406 C 32.28125 31.71875 25.0625 38.9375 16.160156 38.9375 C 7.257812 38.9375 0.0390625 31.71875 0.0390625 22.816406 Z M 22.839844 32.550781 L 16.160156 25.871094 L 9.503906 32.550781 C 11.394531 33.855469 13.6875 34.617188 16.160156 34.617188 C 18.632812 34.617188 20.925781 33.855469 22.839844 32.550781 Z M 25.894531 16.160156 L 19.21875 22.816406 L 25.875 29.46875 C 27.179688 27.582031 27.941406 25.289062 27.941406 22.816406 C 27.941406 20.339844 27.199219 18.046875 25.894531 16.160156 Z M 9.503906 13.101562 L 16.160156 19.757812 L 22.816406 13.101562 C 20.925781 11.796875 18.632812 11.03125 16.160156 11.03125 C 13.6875 11.011719 11.394531 11.796875 9.503906 13.101562 Z M 4.355469 22.816406 C 4.355469 25.289062 5.121094 27.582031 6.425781 29.46875 L 13.082031 22.816406 L 6.445312 16.160156 C 5.144531 18.046875 4.355469 20.339844 4.355469 22.816406 Z M 4.355469 22.816406 "/>
</g>
</g>
</svg>
